<mxfile host="app.diagrams.net" modified="2024-09-23T14:30:00.000Z" agent="5.0" etag="v1" version="21.6.8" type="device"><diagram name="PicPay Architecture" id="picpay-arch"><mxGraphModel dx="1422" dy="794" grid="1" gridSize="10" guides="1" tooltips="1" connect="1" arrows="1" fold="1" page="1" pageScale="1" pageWidth="1169" pageHeight="827" math="0" shadow="0"><root><mxCell id="0"/><mxCell id="1" parent="0"/><mxCell id="2" value="ARQUITETURA PICPAY SIMPLIFICADO" style="text;html=1;strokeColor=none;fillColor=none;align=center;verticalAlign=middle;whiteSpace=wrap;rounded=0;fontSize=18;fontStyle=1;" vertex="1" parent="1"><mxGeometry x="400" y="40" width="360" height="30" as="geometry"/></mxCell><mxCell id="3" value="CAMADA DE APRESENTAÇÃO" style="rounded=0;whiteSpace=wrap;html=1;strokeColor=#000000;fillColor=#E8E8E8;fontSize=14;fontStyle=1;" vertex="1" parent="1"><mxGeometry x="200" y="100" width="600" height="40" as="geometry"/></mxCell><mxCell id="4" value="REST Controllers&#10;TransferController&#10;TransferenciaController" style="rounded=0;whiteSpace=wrap;html=1;strokeColor=#000000;fillColor=#FFFFFF;fontSize=12;" vertex="1" parent="1"><mxGeometry x="250" y="150" width="150" height="70" as="geometry"/></mxCell><mxCell id="5" value="DTOs&#10;TransferenciaRequest&#10;Response Objects" style="rounded=0;whiteSpace=wrap;html=1;strokeColor=#000000;fillColor=#FFFFFF;fontSize=12;" vertex="1" parent="1"><mxGeometry x="450" y="150" width="150" height="70" as="geometry"/></mxCell><mxCell id="6" value="Exception Handlers&#10;Global Error Handler&#10;Validation" style="rounded=0;whiteSpace=wrap;html=1;strokeColor=#000000;fillColor=#FFFFFF;fontSize=12;" vertex="1" parent="1"><mxGeometry x="650" y="150" width="150" height="70" as="geometry"/></mxCell><mxCell id="7" value="CAMADA DE NEGÓCIO" style="rounded=0;whiteSpace=wrap;html=1;strokeColor=#000000;fillColor=#D4D4D4;fontSize=14;fontStyle=1;" vertex="1" parent="1"><mxGeometry x="200" y="260" width="600" height="40" as="geometry"/></mxCell><mxCell id="8" value="Business Services&#10;TransferenciaService&#10;Regras de Negócio" style="rounded=0;whiteSpace=wrap;html=1;strokeColor=#000000;fillColor=#FFFFFF;fontSize=12;" vertex="1" parent="1"><mxGeometry x="250" y="310" width="200" height="70" as="geometry"/></mxCell><mxCell id="9" value="External Services&#10;Autorizador (Mock)&#10;Notificação (Mock)" style="rounded=0;whiteSpace=wrap;html=1;strokeColor=#000000;fillColor=#FFFFFF;fontSize=12;" vertex="1" parent="1"><mxGeometry x="500" y="310" width="200" height="70" as="geometry"/></mxCell><mxCell id="10" value="CAMADA DE ACESSO A DADOS" style="rounded=0;whiteSpace=wrap;html=1;strokeColor=#000000;fillColor=#C0C0C0;fontSize=14;fontStyle=1;" vertex="1" parent="1"><mxGeometry x="200" y="420" width="600" height="40" as="geometry"/></mxCell><mxCell id="11" value="Repositories&#10;UsuarioRepository&#10;SaldoRepository&#10;TransferenciaRepository" style="rounded=0;whiteSpace=wrap;html=1;strokeColor=#000000;fillColor=#FFFFFF;fontSize=12;" vertex="1" parent="1"><mxGeometry x="250" y="470" width="200" height="80" as="geometry"/></mxCell><mxCell id="12" value="Spring Data JPA&#10;Hibernate ORM&#10;Transaction Management" style="rounded=0;whiteSpace=wrap;html=1;strokeColor=#000000;fillColor=#FFFFFF;fontSize=12;" vertex="1" parent="1"><mxGeometry x="500" y="470" width="200" height="80" as="geometry"/></mxCell><mxCell id="13" value="CAMADA DE DOMÍNIO" style="rounded=0;whiteSpace=wrap;html=1;strokeColor=#000000;fillColor=#B0B0B0;fontSize=14;fontStyle=1;" vertex="1" parent="1"><mxGeometry x="200" y="580" width="600" height="40" as="geometry"/></mxCell><mxCell id="14" value="Entities&#10;User&#10;Saldo&#10;Transferencia" style="rounded=0;whiteSpace=wrap;html=1;strokeColor=#000000;fillColor=#FFFFFF;fontSize=12;" vertex="1" parent="1"><mxGeometry x="250" y="630" width="150" height="70" as="geometry"/></mxCell><mxCell id="15" value="Enums&#10;TipoUsuario&#10;StatusTransferencia" style="rounded=0;whiteSpace=wrap;html=1;strokeColor=#000000;fillColor=#FFFFFF;fontSize=12;" vertex="1" parent="1"><mxGeometry x="450" y="630" width="150" height="70" as="geometry"/></mxCell><mxCell id="16" value="Value Objects&#10;Money (BigDecimal)&#10;Email, CPF/CNPJ" style="rounded=0;whiteSpace=wrap;html=1;strokeColor=#000000;fillColor=#FFFFFF;fontSize=12;" vertex="1" parent="1"><mxGeometry x="650" y="630" width="150" height="70" as="geometry"/></mxCell><mxCell id="17" value="H2 DATABASE" style="shape=cylinder3;whiteSpace=wrap;html=1;boundedLbl=1;backgroundOutline=1;size=15;strokeColor=#000000;fillColor=#F0F0F0;fontSize=14;fontStyle=1;" vertex="1" parent="1"><mxGeometry x="900" y="450" width="120" height="100" as="geometry"/></mxCell><mxCell id="18" value="CLIENTE" style="ellipse;whiteSpace=wrap;html=1;strokeColor=#000000;fillColor=#E6F3FF;fontSize=14;fontStyle=1;" vertex="1" parent="1"><mxGeometry x="50" y="140" width="100" height="60" as="geometry"/></mxCell><mxCell id="19" value="TECNOLOGIAS&#10;&#10;Java 21&#10;Spring Boot 3.x&#10;Spring Data JPA&#10;Maven&#10;H2 Database&#10;JUnit 5&#10;Mockito" style="rounded=0;whiteSpace=wrap;html=1;strokeColor=#000000;fillColor=#FFFACD;fontSize=11;verticalAlign=top;" vertex="1" parent="1"><mxGeometry x="900" y="120" width="150" height="200" as="geometry"/></mxCell><mxCell id="20" value="TESTES&#10;&#10;95% Coverage&#10;35+ Unit Tests&#10;Integration Tests&#10;Controller Tests&#10;Service Tests" style="rounded=0;whiteSpace=wrap;html=1;strokeColor=#000000;fillColor=#E6FFE6;fontSize=11;verticalAlign=top;" vertex="1" parent="1"><mxGeometry x="900" y="580" width="150" height="140" as="geometry"/></mxCell><mxCell id="21" value="" style="endArrow=classic;html=1;rounded=0;strokeWidth=3;strokeColor=#000000;" edge="1" parent="1" source="18" target="3"><mxGeometry width="50" height="50" relative="1" as="geometry"><mxPoint x="400" y="350" as="sourcePoint"/><mxPoint x="450" y="300" as="targetPoint"/></mxGeometry></mxCell><mxCell id="22" value="" style="endArrow=classic;html=1;rounded=0;strokeWidth=3;strokeColor=#000000;" edge="1" parent="1" source="3" target="7"><mxGeometry width="50" height="50" relative="1" as="geometry"><mxPoint x="400" y="350" as="sourcePoint"/><mxPoint x="450" y="300" as="targetPoint"/></mxGeometry></mxCell><mxCell id="23" value="" style="endArrow=classic;html=1;rounded=0;strokeWidth=3;strokeColor=#000000;" edge="1" parent="1" source="7" target="10"><mxGeometry width="50" height="50" relative="1" as="geometry"><mxPoint x="400" y="350" as="sourcePoint"/><mxPoint x="450" y="300" as="targetPoint"/></mxGeometry></mxCell><mxCell id="24" value="" style="endArrow=classic;html=1;rounded=0;strokeWidth=3;strokeColor=#000000;" edge="1" parent="1" source="10" target="13"><mxGeometry width="50" height="50" relative="1" as="geometry"><mxPoint x="400" y="350" as="sourcePoint"/><mxPoint x="450" y="300" as="targetPoint"/></mxGeometry></mxCell><mxCell id="25" value="" style="endArrow=classic;html=1;rounded=0;strokeWidth=2;strokeColor=#000000;" edge="1" parent="1" source="12" target="17"><mxGeometry width="50" height="50" relative="1" as="geometry"><mxPoint x="400" y="350" as="sourcePoint"/><mxPoint x="450" y="300" as="targetPoint"/></mxGeometry></mxCell><mxCell id="26" value="Requisição HTTP&#10;POST /transfer" style="text;html=1;strokeColor=none;fillColor=none;align=center;verticalAlign=middle;whiteSpace=wrap;rounded=0;fontSize=10;fontStyle=1;" vertex="1" parent="1"><mxGeometry x="80" y="100" width="80" height="30" as="geometry"/></mxCell><mxCell id="27" value="Chama métodos&#10;de negócio" style="text;html=1;strokeColor=none;fillColor=none;align=center;verticalAlign=middle;whiteSpace=wrap;rounded=0;fontSize=10;fontStyle=1;" vertex="1" parent="1"><mxGeometry x="120" y="230" width="70" height="30" as="geometry"/></mxCell><mxCell id="28" value="Acessa dados&#10;via Repository" style="text;html=1;strokeColor=none;fillColor=none;align=center;verticalAlign=middle;whiteSpace=wrap;rounded=0;fontSize=10;fontStyle=1;" vertex="1" parent="1"><mxGeometry x="120" y="390" width="70" height="30" as="geometry"/></mxCell><mxCell id="29" value="Mapeia para&#10;Entidades JPA" style="text;html=1;strokeColor=none;fillColor=none;align=center;verticalAlign=middle;whiteSpace=wrap;rounded=0;fontSize=10;fontStyle=1;" vertex="1" parent="1"><mxGeometry x="120" y="550" width="70" height="30" as="geometry"/></mxCell><mxCell id="30" value="SQL Queries&#10;CRUD Operations" style="text;html=1;strokeColor=none;fillColor=none;align=center;verticalAlign=middle;whiteSpace=wrap;rounded=0;fontSize=10;fontStyle=1;" vertex="1" parent="1"><mxGeometry x="750" y="480" width="80" height="30" as="geometry"/></mxCell></root></mxGraphModel></diagram></mxfile>

